# File created by Blade
# Date/Time:  Thu Sep 25 17:33:50 2014
# Frame Rate: 120.000 fps
#------------------------------------------------------
:FULLY-SPECIFIED
:DEGREES
539
root -5.119937 32.872162 -2.452413 21.394809 3.854243 20.255714
Spine -1.720900 -4.173349 -2.510012
Head -24.196911 48.304120 -19.271925
LeftShoulder 6.551261 6.902378 14.901438
LeftArm 71.267948 33.733331 -48.905764
LeftForeArm 37.651670 -0.000000 115.060738
LeftHand -34.711780 -0.000000 55.233295
LeftHandThumb1 -26.253704 0.000000 33.147579
RightShoulder -12.177108 15.712752 -27.139728
RightArm 16.637445 -32.557521 74.050182
RightForeArm -29.770144 -0.000000 129.369204
RightHand 3.935098 -0.000000 -47.250705
RightHandThumb1 -24.326973 -0.000000 -32.862282
LeftUpLeg -40.514937 11.366442 -15.471441
LeftLeg 48.637031 -0.000000 -0.000000
LeftFoot 3.104854 0.406321 -38.983253
LeftToeBase -6.324034 -0.000000 0.000000
RightUpLeg -34.962693 -6.361781 -18.149952
RightLeg 35.300964 -0.000000 -0.000000
RightFoot -18.386972 -12.854991 -2.720882
RightToeBase -0.640189 -0.000000 0.000000
540
root -5.172227 32.896843 -2.517785 21.721976 3.852264 20.790320
Spine -1.692516 -4.161438 -2.873230
Head -24.561069 48.230936 -19.715924
LeftShoulder 6.699460 6.699731 14.871297
LeftArm 71.117211 33.624753 -49.068646
LeftForeArm 37.672702 0.000000 115.144116
LeftHand -34.601125 0.000000 54.578259
LeftHandThumb1 -26.253704 0.000000 33.147579
RightShoulder -12.106211 15.857127 -27.240166
RightArm 16.757950 -32.396551 73.756747
RightForeArm -29.776771 -0.000000 129.417042
RightHand 4.063685 0.000000 -47.319840
RightHandThumb1 -24.326973 -0.000000 -32.862282
LeftUpLeg -42.534330 11.570033 -15.350411
LeftLeg 52.549551 -0.000000 -0.000000
LeftFoot 3.659207 -0.353578 -38.788913
LeftToeBase -6.207969 -0.000000 0.000000
RightUpLeg -35.364353 -6.870458 -18.492219
RightLeg 35.392915 -0.000000 -0.000000
RightFoot -18.279037 -12.649145 -2.753993
RightToeBase -0.714450 -0.000000 0.000000
541
root -5.228313 32.924712 -2.592842 22.136217 3.854959 21.269642
Spine -1.767682 -4.187796 -3.163684
Head -24.880674 48.168123 -20.159875
LeftShoulder 6.801246 6.580031 14.792553
LeftArm 71.115818 33.482025 -49.046837
LeftForeArm 37.531806 -0.000000 115.195921
LeftHand -34.025088 -0.000000 53.547790
LeftHandThumb1 -26.253704 0.000000 33.147579
RightShoulder -12.003030 16.007003 -27.264143
RightArm 16.918449 -32.198613 73.537270
RightForeArm -29.809175 -0.000000 129.471822
RightHand 4.242385 -0.000000 -47.298147
RightHandThumb1 -24.326973 -0.000000 -32.862282
LeftUpLeg -44.666935 11.749709 -15.121322
LeftLeg 56.531115 -0.000000 -0.000000
LeftFoot 3.976806 -0.868673 -38.373746
LeftToeBase -6.977497 -0.000000 0.000000
RightUpLeg -35.783692 -7.485956 -18.743086
RightLeg 35.275459 -0.000000 -0.000000
RightFoot -18.189386 -12.204269 -2.651758
RightToeBase -0.509899 -0.000000 0.000000
542
root -5.274327 32.951313 -2.662942 22.471507 3.777950 21.859232
Spine -1.745420 -4.259248 -3.637199
Head -25.273702 48.157761 -20.567106
LeftShoulder 6.832572 6.565483 14.760224
LeftArm 71.189534 33.208575 -48.980189
LeftForeArm 37.363626 -0.000000 115.275932
LeftHand -33.883389 -0.000000 53.034639
LeftHandThumb1 -26.253704 0.000000 33.147579
RightShoulder -11.862615 16.139958 -27.270444
RightArm 17.133366 -32.027190 73.291894
RightForeArm -29.784222 -0.000000 129.550847
RightHand 4.185736 -0.000000 -47.107559
RightHandThumb1 -24.326973 -0.000000 -32.862282
LeftUpLeg -46.671587 11.983259 -14.925737
LeftLeg 60.547443 -0.000000 -0.000000
LeftFoot 3.864304 -1.018664 -38.264706
LeftToeBase -6.329963 -0.000000 0.000000
RightUpLeg -36.227982 -7.937517 -19.166476
RightLeg 35.362242 -0.000000 -0.000000
RightFoot -18.103732 -11.911451 -2.533858
RightToeBase -0.408182 -0.000000 0.000000
543
root -5.315895 32.978054 -2.731257 22.838544 3.652291 22.430012
Spine -1.782168 -4.233365 -4.097255
Head -25.595129 48.074289 -20.946462
LeftShoulder 6.915081 6.541777 14.751428
LeftArm 71.272286 33.010189 -48.925754
LeftForeArm 37.420284 0.000000 115.349288
LeftHand -33.945358 0.000000 53.358863
LeftHandThumb1 -26.253704 0.000000 33.147579
RightShoulder -11.815656 16.196958 -27.305394
RightArm 17.395544 -32.034834 72.992377
RightForeArm -30.230608 -0.000000 129.598497
RightHand 3.628532 -0.000000 -47.407548
RightHandThumb1 -24.326973 -0.000000 -32.862282
LeftUpLeg -48.681599 12.248217 -14.620698
LeftLeg 64.628726 -0.000000 -0.000000
LeftFoot 3.771071 -1.152187 -37.897030
LeftToeBase -6.268638 -0.000000 0.000000
RightUpLeg -36.742500 -8.386139 -19.572306
RightLeg 35.487902 -0.000000 -0.000000
RightFoot -17.984153 -11.638690 -2.419042
RightToeBase -0.478645 -0.000000 0.000000
